<svg width="30" height="25" viewBox="0 0 30 25" fill="none" xmlns="http://www.w3.org/2000/svg">
<title>Pick up in store icon</title>
<path d="M26.9571 12.1518H26.84L25.1235 2.99443C24.8114 1.25348 23.1339 0 21.1443 0H8.46554C6.47594 0 4.79844 1.2883 4.48635 3.02925L2.92588 12.1518C1.28739 12.2214 0 13.4053 0 14.8677V18.8719C0 20.2298 1.09233 21.344 2.57477 21.5529V24.1295V24.1992C2.6528 24.5125 3.12094 25.0348 4.25227 25.0348C5.57867 25.0348 5.96879 24.3384 6.0078 24.234L6.04681 24.1643V21.5877H23.29V24.1295V24.1992C23.368 24.5125 23.8361 25.0348 24.9675 25.0348C26.2939 25.0348 26.684 24.3384 26.723 24.234L26.762 24.1643V21.5877H26.9961C28.6736 21.5877 30.039 20.3691 30.039 18.8719V14.8677C30 13.3705 28.6346 12.1518 26.9571 12.1518ZM5.42263 3.16852C5.6567 1.81059 6.94408 0.870474 8.46554 0.870474H21.1443C22.6658 0.870474 23.9142 1.8454 24.1873 3.16852L25.8648 12.1866H3.86216L5.42263 3.16852ZM5.07152 23.9206C4.9935 23.9902 4.75943 24.1295 4.25227 24.1295C3.82315 24.1295 3.58908 24.0251 3.51105 23.9206V21.5181H5.07152V23.9206ZM25.7477 23.9206C25.6697 23.9902 25.4356 24.1295 24.9285 24.1295C24.4993 24.1295 24.2653 24.0251 24.1873 23.9206V21.5181H25.7477V23.9206ZM29.0247 18.8719C29.0247 19.8816 28.0884 20.7173 26.9571 20.7173H3.04291C1.91157 20.7173 0.975292 19.8816 0.975292 18.8719V14.8677C0.975292 13.8579 1.91157 13.0223 3.04291 13.0223H3.31599H26.4499H26.9961C28.1274 13.0223 29.0637 13.8579 29.0637 14.8677V18.8719H29.0247Z" fill="#656565"/>
<path d="M24.6554 14.9023C23.407 14.9023 22.3927 15.8076 22.3927 16.9218C22.3927 18.036 23.407 18.9413 24.6554 18.9413C25.9038 18.9413 26.9181 18.036 26.9181 16.9218C26.879 15.7728 25.8647 14.9023 24.6554 14.9023ZM24.6554 18.036C23.9532 18.036 23.368 17.5138 23.368 16.887C23.368 16.2603 23.9532 15.738 24.6554 15.738C25.3576 15.738 25.9428 16.2603 25.9428 16.887C25.9428 17.5138 25.3576 18.036 24.6554 18.036Z" fill="#656565"/>
<path d="M4.99351 14.833C3.74514 14.833 2.73083 15.7383 2.73083 16.8525C2.73083 17.9667 3.74514 18.872 4.99351 18.872C6.24189 18.872 7.25619 17.9667 7.25619 16.8525C7.25619 15.7383 6.24189 14.833 4.99351 14.833ZM4.99351 18.0015C4.2913 18.0015 3.70613 17.4792 3.70613 16.8525C3.70613 16.2258 4.2913 15.7035 4.99351 15.7035C5.69572 15.7035 6.2809 16.2258 6.2809 16.8525C6.2809 17.4792 5.69572 18.0015 4.99351 18.0015Z" fill="#656565"/>
<path d="M18.8036 15.6338H10.5331C10.2991 15.6338 10.104 15.8079 10.104 16.0168C10.104 16.2257 10.2991 16.3998 10.5331 16.3998H18.8036C19.0377 16.3998 19.2327 16.2257 19.2327 16.0168C19.2327 15.7731 19.0377 15.6338 18.8036 15.6338Z" fill="#656565"/>
<path d="M18.8036 17.0957H10.5331C10.2991 17.0957 10.104 17.2698 10.104 17.4787C10.104 17.6876 10.2991 17.8617 10.5331 17.8617H18.8036C19.0377 17.8617 19.2327 17.6876 19.2327 17.4787C19.2327 17.2698 19.0377 17.0957 18.8036 17.0957Z" fill="#656565"/>
</svg>
