<svg width="27" height="32" viewBox="0 0 27 32" fill="none" xmlns="http://www.w3.org/2000/svg">
<title>Same day delivery 1</title>
<path d="M11.6814 18.6574C11.6814 18.9632 11.9262 19.2309 12.206 19.2309H19.5855L17.7669 21.6395C17.592 21.9071 17.627 22.2512 17.8368 22.4806C17.9418 22.557 18.0467 22.5953 18.1866 22.5953C18.3265 22.5953 18.5013 22.5188 18.6063 22.3659L21.0894 19.0015C21.2643 18.7721 21.2643 18.4662 21.0894 18.2751L18.6412 14.9107C18.4664 14.6431 18.1166 14.6048 17.9068 14.8342C17.662 15.0254 17.627 15.4077 17.8368 15.6371L19.6205 18.0457H12.206C11.8912 18.0839 11.6814 18.3515 11.6814 18.6574Z" fill="#656565"/>
<path d="M26.4054 5.69654H22.5233C22.2086 3.44086 20.7396 0 16.8575 0C12.5907 0 10.9469 3.44086 10.5972 5.69654H6.81995C6.50518 5.69654 6.22539 6.00239 6.22539 6.34648V14.4134H5.21114C4.93135 14.4134 4.7215 14.6428 4.7215 14.9486C4.7215 15.2545 4.93135 15.4839 5.21114 15.4839H11.7863C12.0661 15.4839 12.2759 15.2545 12.2759 14.9486C12.2759 14.6428 12.0661 14.4134 11.7863 14.4134H7.41451V6.99642H25.8109V30.7001H7.41451V22.5568C7.48446 22.4803 7.5544 22.3274 7.5544 22.2127C7.5544 21.9068 7.34456 21.6774 7.06477 21.6774H0.489637C0.209845 21.6392 0 21.8686 0 22.1744C0 22.4803 0.209845 22.7097 0.489637 22.7097H6.22539V31.3501C6.22539 31.6941 6.50518 32 6.81995 32H26.4054C26.7202 32 27 31.6941 27 31.3501V6.34648C27 6.00239 26.7202 5.69654 26.4054 5.69654ZM16.8575 1.29988C20.1451 1.29988 21.0544 4.32019 21.2992 5.69654H11.8212C12.101 4.28196 13.1503 1.29988 16.8575 1.29988Z" fill="#656565"/>
<path d="M2.41322 19.1154H8.98835C9.26814 19.1154 9.47799 18.886 9.47799 18.5802C9.47799 18.2743 9.26814 18.0449 8.98835 18.0449H2.41322C2.13343 18.0449 1.92358 18.2743 1.92358 18.5802C1.92358 18.886 2.13343 19.1154 2.41322 19.1154Z" fill="#656565"/>
</svg>
