<svg width="32" height="21" viewBox="0 0 32 21" fill="none" xmlns="http://www.w3.org/2000/svg">
<title>Shipping 1</title>
<path d="M31.7903 8.26272L27.08 3.42827C26.9498 3.2947 26.7763 3.22049 26.5956 3.22049H22.0804V0.704947C22.0804 0.315371 21.7732 0 21.3936 0H0.68685C0.307275 0 0 0.315371 0 0.704947V11.5834C0 11.973 0.307275 12.2883 0.68685 12.2883H2.7474V16.4178C2.7474 16.8074 3.05468 17.1228 3.43425 17.1228H5.97198C6.09851 19.2822 7.84817 21 9.98464 21C12.1211 21 13.8671 19.2822 13.9973 17.1228H21.8021C21.9286 19.2822 23.6783 21 25.8147 21C27.9512 21 29.6972 19.2822 29.8274 17.1228H31.3132C31.6927 17.1228 32 16.8074 32 16.4178V8.7636C31.9928 8.57438 31.9205 8.39629 31.7903 8.26272ZM30.6191 9.46855H27.1234V5.4689L30.6191 9.05671V9.46855ZM1.3737 1.40989H20.7067V10.8784H1.3737V1.40989ZM9.98102 19.5901C8.52056 19.5901 7.33122 18.3694 7.33122 16.8705C7.33122 15.3716 8.52056 14.1509 9.98102 14.1509C11.4415 14.1509 12.6308 15.3716 12.6308 16.8705C12.6308 18.3694 11.4415 19.5901 9.98102 19.5901ZM25.8111 19.5901C24.3507 19.5901 23.1613 18.3694 23.1613 16.8705C23.1613 15.3716 24.3507 14.1509 25.8111 14.1509C27.2716 14.1509 28.4609 15.3716 28.4609 16.8705C28.4609 18.3694 27.2716 19.5901 25.8111 19.5901ZM29.6719 15.7129C29.1839 13.9988 27.6403 12.741 25.8111 12.741C23.9855 12.741 22.4419 13.9988 21.9503 15.7129H13.8418C13.3538 13.9988 11.8102 12.741 9.98102 12.741C8.15183 12.741 6.61184 13.9988 6.1202 15.7129H4.1211V12.2883H21.3936C21.7732 12.2883 22.0804 11.973 22.0804 11.5834V4.6341H25.7497V10.1735C25.7497 10.5631 26.0569 10.8784 26.4365 10.8784H30.6191V15.7129H29.6719Z" fill="#656565"/>
</svg>
